<mxfile host="app.diagrams.net" agent="Mozilla/5.0 (Windows NT 10.0; Win64; x64) AppleWebKit/537.36 (KHTML, like Gecko) Chrome/140.0.0.0 Safari/537.36 Edg/140.0.0.0" version="28.2.2">
  <diagram id="jLq_r7p75G_Xk5-JE2sJ" name="ページ1">
    <mxGraphModel dx="489" dy="476" grid="1" gridSize="10" guides="1" tooltips="1" connect="1" arrows="1" fold="1" page="1" pageScale="1" pageWidth="827" pageHeight="1169" math="0" shadow="0">
      <root>
        <mxCell id="0" />
        <mxCell id="1" parent="0" />
        <mxCell id="2" value="時刻を入力する" style="text;html=1;align=center;verticalAlign=middle;whiteSpace=wrap;rounded=0;" parent="1" vertex="1">
          <mxGeometry x="190" y="180" width="90" height="30" as="geometry" />
        </mxCell>
        <mxCell id="HnHihvb6ahEGu08MwcET-2" value="時刻入力画面" style="shape=umlBoundary;whiteSpace=wrap;html=1;fillColor=#f8cecc;strokeColor=#b85450;" parent="1" vertex="1">
          <mxGeometry x="310" y="150" width="100" height="80" as="geometry" />
        </mxCell>
        <mxCell id="HnHihvb6ahEGu08MwcET-3" value="ユーザー" style="shape=umlActor;verticalLabelPosition=bottom;verticalAlign=top;html=1;" parent="1" vertex="1">
          <mxGeometry x="125" y="100" width="30" height="60" as="geometry" />
        </mxCell>
        <mxCell id="HnHihvb6ahEGu08MwcET-4" value="" style="endArrow=classic;html=1;rounded=0;exitX=1;exitY=0.3333333333333333;exitDx=0;exitDy=0;exitPerimeter=0;entryX=0.003;entryY=0.55;entryDx=0;entryDy=0;entryPerimeter=0;" parent="1" source="HnHihvb6ahEGu08MwcET-3" target="HnHihvb6ahEGu08MwcET-2" edge="1">
          <mxGeometry width="50" height="50" relative="1" as="geometry">
            <mxPoint x="390" y="270" as="sourcePoint" />
            <mxPoint x="270" y="190" as="targetPoint" />
          </mxGeometry>
        </mxCell>
        <mxCell id="HnHihvb6ahEGu08MwcET-5" value="時刻が登録される" style="ellipse;shape=umlControl;whiteSpace=wrap;html=1;fillColor=#fff2cc;strokeColor=#d6b656;" parent="1" vertex="1">
          <mxGeometry x="450" y="330" width="70" height="80" as="geometry" />
        </mxCell>
        <mxCell id="HnHihvb6ahEGu08MwcET-6" value="" style="ellipse;shape=umlEntity;whiteSpace=wrap;html=1;fillColor=#d5e8d4;strokeColor=#82b366;" parent="1" vertex="1">
          <mxGeometry x="720" y="210" width="80" height="80" as="geometry" />
        </mxCell>
        <mxCell id="HnHihvb6ahEGu08MwcET-7" value="登録時刻の表示" style="ellipse;shape=umlControl;whiteSpace=wrap;html=1;fillColor=#fff2cc;strokeColor=#d6b656;" parent="1" vertex="1">
          <mxGeometry x="310" y="330" width="70" height="80" as="geometry" />
        </mxCell>
        <mxCell id="HnHihvb6ahEGu08MwcET-8" value="05:00~11:59 「おはよう」&lt;div&gt;12:00~17:59 「こんにちは」&lt;/div&gt;&lt;div&gt;18:00~21:59 「こんばんわ」&lt;/div&gt;&lt;div&gt;22:00~4:59 「おやすみ」&lt;/div&gt;" style="rounded=0;whiteSpace=wrap;html=1;" parent="1" vertex="1">
          <mxGeometry x="550" y="300" width="210" height="80" as="geometry" />
        </mxCell>
        <mxCell id="HnHihvb6ahEGu08MwcET-9" value="時刻設定" style="ellipse;shape=umlControl;whiteSpace=wrap;html=1;fillColor=#fff2cc;strokeColor=#d6b656;" parent="1" vertex="1">
          <mxGeometry x="500" y="200" width="70" height="80" as="geometry" />
        </mxCell>
        <mxCell id="HnHihvb6ahEGu08MwcET-10" value="時刻に応じた挨拶の表示" style="shape=umlBoundary;whiteSpace=wrap;html=1;fillColor=#f8cecc;strokeColor=#b85450;" parent="1" vertex="1">
          <mxGeometry x="120" y="330" width="100" height="80" as="geometry" />
        </mxCell>
        <mxCell id="HnHihvb6ahEGu08MwcET-11" value="" style="endArrow=classic;html=1;rounded=0;exitX=0.87;exitY=0.9;exitDx=0;exitDy=0;exitPerimeter=0;entryX=0.014;entryY=0.425;entryDx=0;entryDy=0;entryPerimeter=0;" parent="1" source="HnHihvb6ahEGu08MwcET-2" target="HnHihvb6ahEGu08MwcET-9" edge="1">
          <mxGeometry width="50" height="50" relative="1" as="geometry">
            <mxPoint x="230" y="296" as="sourcePoint" />
            <mxPoint x="380" y="270" as="targetPoint" />
          </mxGeometry>
        </mxCell>
        <mxCell id="HnHihvb6ahEGu08MwcET-12" value="" style="endArrow=block;startArrow=block;endFill=1;startFill=1;html=1;rounded=0;entryX=0;entryY=0.5;entryDx=0;entryDy=0;exitX=0.986;exitY=0.583;exitDx=0;exitDy=0;exitPerimeter=0;" parent="1" source="HnHihvb6ahEGu08MwcET-9" target="HnHihvb6ahEGu08MwcET-6" edge="1">
          <mxGeometry width="160" relative="1" as="geometry">
            <mxPoint x="330" y="300" as="sourcePoint" />
            <mxPoint x="490" y="300" as="targetPoint" />
          </mxGeometry>
        </mxCell>
        <mxCell id="HnHihvb6ahEGu08MwcET-14" value="" style="endArrow=classic;html=1;rounded=0;exitX=0.3;exitY=0.958;exitDx=0;exitDy=0;exitPerimeter=0;entryX=0.967;entryY=0.317;entryDx=0;entryDy=0;entryPerimeter=0;" parent="1" source="HnHihvb6ahEGu08MwcET-9" target="HnHihvb6ahEGu08MwcET-5" edge="1">
          <mxGeometry width="50" height="50" relative="1" as="geometry">
            <mxPoint x="366.02" y="288" as="sourcePoint" />
            <mxPoint x="460.02" y="360" as="targetPoint" />
          </mxGeometry>
        </mxCell>
        <mxCell id="HnHihvb6ahEGu08MwcET-15" value="" style="endArrow=classic;html=1;rounded=0;exitX=0.005;exitY=0.55;exitDx=0;exitDy=0;exitPerimeter=0;entryX=0.995;entryY=0.525;entryDx=0;entryDy=0;entryPerimeter=0;" parent="1" source="HnHihvb6ahEGu08MwcET-5" target="HnHihvb6ahEGu08MwcET-7" edge="1">
          <mxGeometry width="50" height="50" relative="1" as="geometry">
            <mxPoint x="333.31" y="380.36" as="sourcePoint" />
            <mxPoint x="280.31" y="448.36" as="targetPoint" />
          </mxGeometry>
        </mxCell>
        <mxCell id="HnHihvb6ahEGu08MwcET-16" value="" style="endArrow=classic;html=1;rounded=0;exitX=0.01;exitY=0.496;exitDx=0;exitDy=0;exitPerimeter=0;entryX=1.017;entryY=0.5;entryDx=0;entryDy=0;entryPerimeter=0;" parent="1" source="HnHihvb6ahEGu08MwcET-7" target="HnHihvb6ahEGu08MwcET-10" edge="1">
          <mxGeometry width="50" height="50" relative="1" as="geometry">
            <mxPoint x="263.16999999999996" y="510.36" as="sourcePoint" />
            <mxPoint x="207.17" y="608.36" as="targetPoint" />
          </mxGeometry>
        </mxCell>
        <mxCell id="z-zrTTYIQmX1KuQ_9K2t-2" value="システムメニュー" style="shape=umlBoundary;whiteSpace=wrap;html=1;fillColor=#f8cecc;strokeColor=#b85450;" parent="1" vertex="1">
          <mxGeometry x="314" y="15" width="100" height="80" as="geometry" />
        </mxCell>
        <mxCell id="z-zrTTYIQmX1KuQ_9K2t-3" value="" style="endArrow=classic;html=1;rounded=0;exitX=1;exitY=0.3333333333333333;exitDx=0;exitDy=0;exitPerimeter=0;entryX=0.003;entryY=0.55;entryDx=0;entryDy=0;entryPerimeter=0;" parent="1" source="HnHihvb6ahEGu08MwcET-3" target="z-zrTTYIQmX1KuQ_9K2t-2" edge="1">
          <mxGeometry width="50" height="50" relative="1" as="geometry">
            <mxPoint x="159" y="-30" as="sourcePoint" />
            <mxPoint x="274" y="40" as="targetPoint" />
          </mxGeometry>
        </mxCell>
        <mxCell id="z-zrTTYIQmX1KuQ_9K2t-4" value="表示" style="ellipse;shape=umlControl;whiteSpace=wrap;html=1;fillColor=#fff2cc;strokeColor=#d6b656;" parent="1" vertex="1">
          <mxGeometry x="490" y="50" width="70" height="80" as="geometry" />
        </mxCell>
        <mxCell id="z-zrTTYIQmX1KuQ_9K2t-5" value="" style="endArrow=classic;html=1;rounded=0;exitX=0.97;exitY=0.758;exitDx=0;exitDy=0;exitPerimeter=0;entryX=0.014;entryY=0.425;entryDx=0;entryDy=0;entryPerimeter=0;" parent="1" source="z-zrTTYIQmX1KuQ_9K2t-2" target="z-zrTTYIQmX1KuQ_9K2t-4" edge="1">
          <mxGeometry width="50" height="50" relative="1" as="geometry">
            <mxPoint x="410" y="62" as="sourcePoint" />
            <mxPoint x="393" y="110" as="targetPoint" />
          </mxGeometry>
        </mxCell>
        <mxCell id="z-zrTTYIQmX1KuQ_9K2t-7" value="" style="endArrow=classic;html=1;rounded=0;exitX=0.176;exitY=0.908;exitDx=0;exitDy=0;exitPerimeter=0;entryX=1.003;entryY=0.375;entryDx=0;entryDy=0;entryPerimeter=0;" parent="1" source="z-zrTTYIQmX1KuQ_9K2t-4" target="HnHihvb6ahEGu08MwcET-2" edge="1">
          <mxGeometry width="50" height="50" relative="1" as="geometry">
            <mxPoint x="410" y="137" as="sourcePoint" />
            <mxPoint x="490" y="160" as="targetPoint" />
          </mxGeometry>
        </mxCell>
        <mxCell id="z-zrTTYIQmX1KuQ_9K2t-8" value="時刻を設定する" style="text;html=1;align=center;verticalAlign=middle;whiteSpace=wrap;rounded=0;" parent="1" vertex="1">
          <mxGeometry x="600" y="220" width="125" height="30" as="geometry" />
        </mxCell>
        <mxCell id="z-zrTTYIQmX1KuQ_9K2t-9" value="挨拶を受け取る" style="text;html=1;align=center;verticalAlign=middle;whiteSpace=wrap;rounded=0;" parent="1" vertex="1">
          <mxGeometry x="600" y="260" width="125" height="30" as="geometry" />
        </mxCell>
        <mxCell id="z-zrTTYIQmX1KuQ_9K2t-13" value="時刻に応じた挨拶" style="text;html=1;align=center;verticalAlign=middle;whiteSpace=wrap;rounded=0;" parent="1" vertex="1">
          <mxGeometry x="165" y="40" width="115" height="30" as="geometry" />
        </mxCell>
        <mxCell id="4NoZFyTZ7t67o87RtmU9-2" value="RoboDog" style="text;html=1;align=center;verticalAlign=middle;whiteSpace=wrap;rounded=0;" vertex="1" parent="1">
          <mxGeometry x="730" y="235" width="60" height="30" as="geometry" />
        </mxCell>
        <mxCell id="4NoZFyTZ7t67o87RtmU9-3" value="RoboDog" style="text;html=1;align=center;verticalAlign=middle;whiteSpace=wrap;rounded=0;" vertex="1" parent="1">
          <mxGeometry x="340" y="95" width="60" height="30" as="geometry" />
        </mxCell>
      </root>
    </mxGraphModel>
  </diagram>
</mxfile>
